<svg xmlns="http://www.w3.org/2000/svg" viewBox="0 0 64 64">
  <!-- 背景：深い藍色の角丸 -->
  <rect width="64" height="64" rx="15" fill="#1e1b3a"/>
  <!-- ピンクの吹き出し -->
  <path d="M14 13h36a7 7 0 0 1 7 7v19a7 7 0 0 1-7 7H30l-10 8v-8h-6a7 7 0 0 1-7-7V20a7 7 0 0 1 7-7z" fill="#ff3d7f"/>
  <!-- 白いはてなマーク -->
  <path d="M25.5 25.2c.4-4 3.4-6.4 7.2-6.4 4.1 0 7.1 2.5 7.1 6.1 0 2.6-1.3 4-3.4 5.3-1.6 1-2.1 1.6-2.1 3v.8h-4.3v-1.1c0-2.5.9-3.8 3-5.1 1.6-1 2.3-1.6 2.3-2.9 0-1.4-1.1-2.4-2.7-2.4-1.7 0-2.8 1.1-3 2.8z" fill="#fff"/>
  <circle cx="32.1" cy="40.2" r="2.7" fill="#fff"/>
  <!-- 黄色のきらめき -->
  <path d="M52 3l1.8 4.6L58.4 9.4l-4.6 1.8L52 15.8l-1.8-4.6-4.6-1.8 4.6-1.8z" fill="#ffc531"/>
</svg>
